<mxfile host="app.diagrams.net" agent="Mozilla/5.0 (Macintosh; Intel Mac OS X 10_15_7) AppleWebKit/537.36 (KHTML, like Gecko) Chrome/133.0.0.0 Safari/537.36" version="26.0.12">
  <diagram id="jSP9rPn6YQcxm35T1EO7" name="Page-1">
    <mxGraphModel dx="2662" dy="2048" grid="1" gridSize="10" guides="1" tooltips="1" connect="1" arrows="1" fold="1" page="1" pageScale="1" pageWidth="827" pageHeight="1169" math="0" shadow="0">
      <root>
        <mxCell id="0" />
        <mxCell id="1" parent="0" />
        <mxCell id="122" value="" style="rounded=1;whiteSpace=wrap;html=1;" parent="1" vertex="1">
          <mxGeometry x="550" y="550" width="850" height="480" as="geometry" />
        </mxCell>
        <mxCell id="71" value="" style="rounded=1;whiteSpace=wrap;html=1;" parent="1" vertex="1">
          <mxGeometry x="-20" y="-130" width="870" height="620" as="geometry" />
        </mxCell>
        <mxCell id="12" style="edgeStyle=none;html=1;entryX=0;entryY=0.5;entryDx=0;entryDy=0;" parent="1" source="2" target="11" edge="1">
          <mxGeometry relative="1" as="geometry" />
        </mxCell>
        <mxCell id="2" value="Relayer A" style="rounded=1;whiteSpace=wrap;html=1;" parent="1" vertex="1">
          <mxGeometry x="40" y="234" width="120" height="60" as="geometry" />
        </mxCell>
        <mxCell id="18" style="edgeStyle=none;html=1;entryX=0.5;entryY=1;entryDx=0;entryDy=0;" parent="1" source="3" target="17" edge="1">
          <mxGeometry relative="1" as="geometry" />
        </mxCell>
        <mxCell id="3" value="CC" style="rounded=1;whiteSpace=wrap;html=1;" parent="1" vertex="1">
          <mxGeometry x="650" y="234" width="120" height="60" as="geometry" />
        </mxCell>
        <mxCell id="14" style="edgeStyle=none;html=1;entryX=0;entryY=0.5;entryDx=0;entryDy=0;" parent="1" source="11" target="3" edge="1">
          <mxGeometry relative="1" as="geometry" />
        </mxCell>
        <mxCell id="15" style="edgeStyle=none;html=1;entryX=0.5;entryY=1;entryDx=0;entryDy=0;entryPerimeter=0;exitX=0.936;exitY=0.337;exitDx=0;exitDy=0;exitPerimeter=0;" parent="1" source="11" target="13" edge="1">
          <mxGeometry relative="1" as="geometry">
            <Array as="points">
              <mxPoint x="480" y="254" />
              <mxPoint x="480" y="210" />
            </Array>
          </mxGeometry>
        </mxCell>
        <mxCell id="16" value="status = 0" style="edgeLabel;html=1;align=center;verticalAlign=middle;resizable=0;points=[];" parent="15" vertex="1" connectable="0">
          <mxGeometry x="0.6" y="-2" relative="1" as="geometry">
            <mxPoint as="offset" />
          </mxGeometry>
        </mxCell>
        <mxCell id="11" value="initiateEIP5164()" style="shape=parallelogram;perimeter=parallelogramPerimeter;whiteSpace=wrap;html=1;fixedSize=1;" parent="1" vertex="1">
          <mxGeometry x="270" y="234" width="120" height="60" as="geometry" />
        </mxCell>
        <mxCell id="13" value="DB" style="shape=cylinder3;whiteSpace=wrap;html=1;boundedLbl=1;backgroundOutline=1;size=15;" parent="1" vertex="1">
          <mxGeometry x="450" y="50" width="60" height="80" as="geometry" />
        </mxCell>
        <mxCell id="20" style="edgeStyle=none;html=1;entryX=1;entryY=0;entryDx=0;entryDy=52.5;entryPerimeter=0;" parent="1" source="17" target="13" edge="1">
          <mxGeometry relative="1" as="geometry" />
        </mxCell>
        <mxCell id="22" value="yes, status = 2" style="edgeLabel;html=1;align=center;verticalAlign=middle;resizable=0;points=[];" parent="20" vertex="1" connectable="0">
          <mxGeometry x="0.3971" y="-2" relative="1" as="geometry">
            <mxPoint x="42" y="-10" as="offset" />
          </mxGeometry>
        </mxCell>
        <mxCell id="23" style="edgeStyle=none;html=1;entryX=0.5;entryY=0;entryDx=0;entryDy=0;entryPerimeter=0;" parent="1" source="17" target="13" edge="1">
          <mxGeometry relative="1" as="geometry">
            <Array as="points">
              <mxPoint x="710" y="-20" />
              <mxPoint x="480" y="-20" />
            </Array>
          </mxGeometry>
        </mxCell>
        <mxCell id="24" value="no, status = 1" style="edgeLabel;html=1;align=center;verticalAlign=middle;resizable=0;points=[];" parent="23" vertex="1" connectable="0">
          <mxGeometry x="0.1139" relative="1" as="geometry">
            <mxPoint x="12" y="-10" as="offset" />
          </mxGeometry>
        </mxCell>
        <mxCell id="17" value="successful?" style="rhombus;whiteSpace=wrap;html=1;" parent="1" vertex="1">
          <mxGeometry x="670" y="60" width="80" height="80" as="geometry" />
        </mxCell>
        <mxCell id="32" style="edgeStyle=none;html=1;exitX=1;exitY=0.75;exitDx=0;exitDy=0;entryX=0;entryY=1;entryDx=0;entryDy=-15;entryPerimeter=0;" parent="1" source="25" target="13" edge="1">
          <mxGeometry relative="1" as="geometry" />
        </mxCell>
        <mxCell id="68" value="listen for status 1,2" style="edgeLabel;html=1;align=center;verticalAlign=middle;resizable=0;points=[];" parent="32" vertex="1" connectable="0">
          <mxGeometry x="-0.3319" y="1" relative="1" as="geometry">
            <mxPoint x="24" y="-14" as="offset" />
          </mxGeometry>
        </mxCell>
        <mxCell id="34" style="edgeStyle=none;html=1;entryX=0;entryY=0.5;entryDx=0;entryDy=0;" parent="1" source="25" target="30" edge="1">
          <mxGeometry relative="1" as="geometry">
            <Array as="points">
              <mxPoint x="120" y="20" />
            </Array>
          </mxGeometry>
        </mxCell>
        <mxCell id="36" value="txs" style="edgeLabel;html=1;align=center;verticalAlign=middle;resizable=0;points=[];" parent="34" vertex="1" connectable="0">
          <mxGeometry x="-0.0415" y="2" relative="1" as="geometry">
            <mxPoint x="14" y="-8" as="offset" />
          </mxGeometry>
        </mxCell>
        <mxCell id="25" value="Atomic Service - Early Revert" style="rounded=1;whiteSpace=wrap;html=1;" parent="1" vertex="1">
          <mxGeometry x="60" y="70" width="120" height="60" as="geometry" />
        </mxCell>
        <mxCell id="37" style="edgeStyle=none;html=1;entryX=0;entryY=0;entryDx=0;entryDy=15;entryPerimeter=0;exitX=1;exitY=0.5;exitDx=0;exitDy=0;" parent="1" source="30" target="13" edge="1">
          <mxGeometry relative="1" as="geometry">
            <Array as="points">
              <mxPoint x="310" y="20" />
              <mxPoint x="310" y="65" />
            </Array>
          </mxGeometry>
        </mxCell>
        <mxCell id="38" value="yes, status = 3" style="edgeLabel;html=1;align=center;verticalAlign=middle;resizable=0;points=[];" parent="37" vertex="1" connectable="0">
          <mxGeometry x="-0.2759" y="4" relative="1" as="geometry">
            <mxPoint x="47" y="-11" as="offset" />
          </mxGeometry>
        </mxCell>
        <mxCell id="74" style="edgeStyle=none;html=1;entryX=0;entryY=0.5;entryDx=0;entryDy=0;" parent="1" source="30" target="73" edge="1">
          <mxGeometry relative="1" as="geometry">
            <Array as="points">
              <mxPoint x="240" y="-60" />
            </Array>
          </mxGeometry>
        </mxCell>
        <mxCell id="75" value="no" style="edgeLabel;html=1;align=center;verticalAlign=middle;resizable=0;points=[];" parent="74" vertex="1" connectable="0">
          <mxGeometry x="0.0273" y="1" relative="1" as="geometry">
            <mxPoint y="-9" as="offset" />
          </mxGeometry>
        </mxCell>
        <mxCell id="30" value="successful?" style="rhombus;whiteSpace=wrap;html=1;" parent="1" vertex="1">
          <mxGeometry x="200" y="-20" width="80" height="80" as="geometry" />
        </mxCell>
        <mxCell id="72" value="Sender" style="text;html=1;align=center;verticalAlign=middle;resizable=0;points=[];autosize=1;strokeColor=none;fillColor=none;" parent="1" vertex="1">
          <mxGeometry y="-170" width="60" height="30" as="geometry" />
        </mxCell>
        <mxCell id="76" style="edgeStyle=none;html=1;entryX=0.145;entryY=0;entryDx=0;entryDy=4.35;entryPerimeter=0;" parent="1" source="73" target="13" edge="1">
          <mxGeometry relative="1" as="geometry" />
        </mxCell>
        <mxCell id="77" value="status = 9" style="edgeLabel;html=1;align=center;verticalAlign=middle;resizable=0;points=[];" parent="76" vertex="1" connectable="0">
          <mxGeometry x="-0.4704" y="1" relative="1" as="geometry">
            <mxPoint as="offset" />
          </mxGeometry>
        </mxCell>
        <mxCell id="73" value="Revert" style="ellipse;whiteSpace=wrap;html=1;aspect=fixed;" parent="1" vertex="1">
          <mxGeometry x="310" y="-100" width="80" height="80" as="geometry" />
        </mxCell>
        <mxCell id="78" value="" style="rounded=1;whiteSpace=wrap;html=1;" parent="1" vertex="1">
          <mxGeometry x="1000" y="-130" width="870" height="620" as="geometry" />
        </mxCell>
        <mxCell id="79" value="Destnatiion" style="text;html=1;align=center;verticalAlign=middle;resizable=0;points=[];autosize=1;strokeColor=none;fillColor=none;" parent="1" vertex="1">
          <mxGeometry x="1030" y="-180" width="80" height="30" as="geometry" />
        </mxCell>
        <mxCell id="82" style="edgeStyle=none;html=1;entryX=0;entryY=0.5;entryDx=0;entryDy=0;" parent="1" source="80" target="81" edge="1">
          <mxGeometry relative="1" as="geometry" />
        </mxCell>
        <mxCell id="80" value="Relayer B" style="rounded=1;whiteSpace=wrap;html=1;" parent="1" vertex="1">
          <mxGeometry x="1040" y="230" width="120" height="60" as="geometry" />
        </mxCell>
        <mxCell id="84" style="edgeStyle=none;html=1;entryX=0.5;entryY=1;entryDx=0;entryDy=0;entryPerimeter=0;" parent="1" source="81" target="83" edge="1">
          <mxGeometry relative="1" as="geometry">
            <Array as="points">
              <mxPoint x="1450" y="264" />
            </Array>
          </mxGeometry>
        </mxCell>
        <mxCell id="85" value="status = 4" style="edgeLabel;html=1;align=center;verticalAlign=middle;resizable=0;points=[];" parent="84" vertex="1" connectable="0">
          <mxGeometry x="-0.6445" y="4" relative="1" as="geometry">
            <mxPoint x="17" y="-10" as="offset" />
          </mxGeometry>
        </mxCell>
        <mxCell id="87" style="edgeStyle=none;html=1;exitX=1;exitY=0.75;exitDx=0;exitDy=0;entryX=0;entryY=0.5;entryDx=0;entryDy=0;" parent="1" source="81" target="86" edge="1">
          <mxGeometry relative="1" as="geometry" />
        </mxCell>
        <mxCell id="89" value="reverted" style="edgeLabel;html=1;align=center;verticalAlign=middle;resizable=0;points=[];" parent="87" vertex="1" connectable="0">
          <mxGeometry x="-0.3131" y="-1" relative="1" as="geometry">
            <mxPoint x="21" y="14" as="offset" />
          </mxGeometry>
        </mxCell>
        <mxCell id="81" value="finishEP5164()" style="shape=parallelogram;perimeter=parallelogramPerimeter;whiteSpace=wrap;html=1;fixedSize=1;" parent="1" vertex="1">
          <mxGeometry x="1250" y="234" width="120" height="60" as="geometry" />
        </mxCell>
        <mxCell id="83" value="DB" style="shape=cylinder3;whiteSpace=wrap;html=1;boundedLbl=1;backgroundOutline=1;size=15;" parent="1" vertex="1">
          <mxGeometry x="1420" y="90" width="60" height="80" as="geometry" />
        </mxCell>
        <mxCell id="90" style="edgeStyle=none;html=1;entryX=0.5;entryY=1;entryDx=0;entryDy=0;entryPerimeter=0;exitX=0.5;exitY=0;exitDx=0;exitDy=0;" parent="1" source="86" target="83" edge="1">
          <mxGeometry relative="1" as="geometry">
            <Array as="points">
              <mxPoint x="1580" y="200" />
              <mxPoint x="1450" y="200" />
            </Array>
          </mxGeometry>
        </mxCell>
        <mxCell id="91" value="yes, status = 5" style="edgeLabel;html=1;align=center;verticalAlign=middle;resizable=0;points=[];" parent="90" vertex="1" connectable="0">
          <mxGeometry x="-0.2683" y="-2" relative="1" as="geometry">
            <mxPoint x="-23" y="-8" as="offset" />
          </mxGeometry>
        </mxCell>
        <mxCell id="95" style="edgeStyle=none;html=1;exitX=1;exitY=0.5;exitDx=0;exitDy=0;entryX=0.5;entryY=1;entryDx=0;entryDy=0;" parent="1" source="86" target="92" edge="1">
          <mxGeometry relative="1" as="geometry">
            <Array as="points">
              <mxPoint x="1715" y="274" />
            </Array>
          </mxGeometry>
        </mxCell>
        <mxCell id="96" value="no" style="edgeLabel;html=1;align=center;verticalAlign=middle;resizable=0;points=[];" parent="95" vertex="1" connectable="0">
          <mxGeometry x="-0.1143" y="-3" relative="1" as="geometry">
            <mxPoint x="-10" y="-13" as="offset" />
          </mxGeometry>
        </mxCell>
        <mxCell id="86" value="before mining?" style="rhombus;whiteSpace=wrap;html=1;" parent="1" vertex="1">
          <mxGeometry x="1540" y="234" width="80" height="80" as="geometry" />
        </mxCell>
        <mxCell id="98" style="edgeStyle=none;html=1;entryX=0.5;entryY=1;entryDx=0;entryDy=0;" parent="1" source="92" target="97" edge="1">
          <mxGeometry relative="1" as="geometry" />
        </mxCell>
        <mxCell id="92" value="execute tо PL" style="ellipse;whiteSpace=wrap;html=1;aspect=fixed;" parent="1" vertex="1">
          <mxGeometry x="1690" y="184" width="50" height="50" as="geometry" />
        </mxCell>
        <mxCell id="99" style="edgeStyle=none;html=1;entryX=1;entryY=0;entryDx=0;entryDy=27.5;entryPerimeter=0;" parent="1" source="97" target="83" edge="1">
          <mxGeometry relative="1" as="geometry" />
        </mxCell>
        <mxCell id="100" value="yes, status = 6" style="edgeLabel;html=1;align=center;verticalAlign=middle;resizable=0;points=[];" parent="99" vertex="1" connectable="0">
          <mxGeometry x="0.3988" y="-2" relative="1" as="geometry">
            <mxPoint x="41" y="15" as="offset" />
          </mxGeometry>
        </mxCell>
        <mxCell id="102" style="edgeStyle=none;html=1;entryX=0.5;entryY=0;entryDx=0;entryDy=0;entryPerimeter=0;" parent="1" source="97" target="83" edge="1">
          <mxGeometry relative="1" as="geometry">
            <Array as="points">
              <mxPoint x="1715" y="50" />
              <mxPoint x="1450" y="50" />
            </Array>
          </mxGeometry>
        </mxCell>
        <mxCell id="103" value="no, status = 1" style="edgeLabel;html=1;align=center;verticalAlign=middle;resizable=0;points=[];" parent="102" vertex="1" connectable="0">
          <mxGeometry x="0.181" y="-1" relative="1" as="geometry">
            <mxPoint x="35" y="-9" as="offset" />
          </mxGeometry>
        </mxCell>
        <mxCell id="97" value="success" style="rhombus;whiteSpace=wrap;html=1;" parent="1" vertex="1">
          <mxGeometry x="1675" y="75" width="80" height="80" as="geometry" />
        </mxCell>
        <mxCell id="105" style="edgeStyle=none;html=1;entryX=0;entryY=0.5;entryDx=0;entryDy=0;entryPerimeter=0;" parent="1" source="104" target="83" edge="1">
          <mxGeometry relative="1" as="geometry" />
        </mxCell>
        <mxCell id="106" value="listen for status = 6" style="edgeLabel;html=1;align=center;verticalAlign=middle;resizable=0;points=[];" parent="105" vertex="1" connectable="0">
          <mxGeometry x="-0.4074" y="-1" relative="1" as="geometry">
            <mxPoint x="53" y="-13" as="offset" />
          </mxGeometry>
        </mxCell>
        <mxCell id="111" style="edgeStyle=none;html=1;entryX=0.5;entryY=1;entryDx=0;entryDy=0;" parent="1" source="104" target="110" edge="1">
          <mxGeometry relative="1" as="geometry" />
        </mxCell>
        <mxCell id="118" value="txs" style="edgeLabel;html=1;align=center;verticalAlign=middle;resizable=0;points=[];" parent="111" vertex="1" connectable="0">
          <mxGeometry x="0.1185" y="-2" relative="1" as="geometry">
            <mxPoint x="8" as="offset" />
          </mxGeometry>
        </mxCell>
        <mxCell id="104" value="Atomic Service - Destination" style="rounded=1;whiteSpace=wrap;html=1;" parent="1" vertex="1">
          <mxGeometry x="1040" y="100" width="120" height="60" as="geometry" />
        </mxCell>
        <mxCell id="108" value="&lt;div style=&quot;background-color: rgb(31, 31, 31); font-family: Menlo, Monaco, &amp;quot;Courier New&amp;quot;, monospace; line-height: 18px;&quot;&gt;&lt;div style=&quot;color: rgb(204, 204, 204);&quot;&gt;&lt;span style=&quot;color: rgb(156, 220, 254);&quot;&gt;SenderStartState&lt;/span&gt; &lt;span style=&quot;color: rgb(78, 201, 176);&quot;&gt;TransactionState&lt;/span&gt; &lt;span style=&quot;color: rgb(212, 212, 212);&quot;&gt;=&lt;/span&gt; &lt;span style=&quot;color: rgb(86, 156, 214);&quot;&gt;iota&lt;/span&gt;&lt;br&gt;&lt;/div&gt;&lt;div style=&quot;color: rgb(204, 204, 204);&quot;&gt;    &lt;span style=&quot;color: #9cdcfe;&quot;&gt;FailedSentToCommitChain = 1&lt;/span&gt;&lt;/div&gt;&lt;div style=&quot;&quot;&gt;    &lt;span style=&quot;color: rgb(156, 220, 254);&quot;&gt;SenderSentToCCAndAwaitingConfirmation&lt;/span&gt;&lt;font color=&quot;#cccccc&quot;&gt;&amp;nbsp;= 2&lt;/font&gt;&lt;/div&gt;&lt;div style=&quot;color: rgb(204, 204, 204);&quot;&gt;    &lt;span style=&quot;color: #9cdcfe;&quot;&gt;SenderSentToCCSuccessfully = 3&lt;/span&gt;&lt;/div&gt;&lt;div style=&quot;color: rgb(204, 204, 204);&quot;&gt;    &lt;span style=&quot;color: #9cdcfe;&quot;&gt;DestinationStartState = 4&lt;/span&gt;&lt;/div&gt;&lt;div style=&quot;color: rgb(204, 204, 204);&quot;&gt;    &lt;span style=&quot;color: #9cdcfe;&quot;&gt;DestinationRevertedBeforeMinting = 5&lt;/span&gt;&lt;/div&gt;&lt;div style=&quot;color: rgb(204, 204, 204);&quot;&gt;    &lt;span style=&quot;color: #9cdcfe;&quot;&gt;DestinationPayloadExecutedAwaitingConfirmation = 6&lt;/span&gt;&lt;/div&gt;&lt;div style=&quot;color: rgb(204, 204, 204);&quot;&gt;    &lt;span style=&quot;color: #9cdcfe;&quot;&gt;AtomicTeleportExecutedState = 7&lt;/span&gt;&lt;/div&gt;&lt;div style=&quot;color: rgb(204, 204, 204);&quot;&gt;    &lt;span style=&quot;color: #9cdcfe;&quot;&gt;AtomicTeleportRevertedState = 8&lt;/span&gt;&lt;/div&gt;&lt;div style=&quot;color: rgb(204, 204, 204);&quot;&gt;    &lt;span style=&quot;color: #9cdcfe;&quot;&gt;SenderRevertedState = 9&lt;/span&gt;&lt;/div&gt;&lt;div style=&quot;color: rgb(204, 204, 204);&quot;&gt;    &lt;span style=&quot;color: #9cdcfe;&quot;&gt;DestinationRevertedState = 10&lt;/span&gt;&lt;/div&gt;&lt;div style=&quot;color: rgb(204, 204, 204);&quot;&gt;    &lt;span style=&quot;color: #9cdcfe;&quot;&gt;BridgeFlowEIP5164FinishedState = 11&lt;/span&gt;&lt;/div&gt;&lt;div style=&quot;color: rgb(204, 204, 204);&quot;&gt;    &lt;span style=&quot;color: #9cdcfe;&quot;&gt;BridgeFlowEIP5164FailedState = 12&lt;/span&gt;&lt;/div&gt;&lt;/div&gt;" style="text;html=1;align=left;verticalAlign=middle;resizable=0;points=[];autosize=1;strokeColor=none;fillColor=none;" parent="1" vertex="1">
          <mxGeometry x="690" y="-470" width="380" height="250" as="geometry" />
        </mxCell>
        <mxCell id="109" value="listen CC for logs&lt;br&gt;" style="text;html=1;align=center;verticalAlign=middle;resizable=0;points=[];autosize=1;strokeColor=none;fillColor=none;" parent="1" vertex="1">
          <mxGeometry x="1045" y="290" width="110" height="30" as="geometry" />
        </mxCell>
        <mxCell id="113" style="edgeStyle=none;html=1;entryX=0;entryY=0.5;entryDx=0;entryDy=0;" parent="1" source="110" target="112" edge="1">
          <mxGeometry relative="1" as="geometry" />
        </mxCell>
        <mxCell id="119" value="atomic&lt;br&gt;vanilla" style="edgeLabel;html=1;align=center;verticalAlign=middle;resizable=0;points=[];" parent="113" vertex="1" connectable="0">
          <mxGeometry x="-0.6394" y="-1" relative="1" as="geometry">
            <mxPoint x="18" y="-21" as="offset" />
          </mxGeometry>
        </mxCell>
        <mxCell id="110" value="CC" style="rounded=1;whiteSpace=wrap;html=1;" parent="1" vertex="1">
          <mxGeometry x="1040" y="-50" width="120" height="60" as="geometry" />
        </mxCell>
        <mxCell id="114" style="edgeStyle=none;html=1;entryX=0.02;entryY=0.418;entryDx=0;entryDy=0;entryPerimeter=0;" parent="1" source="112" target="83" edge="1">
          <mxGeometry relative="1" as="geometry">
            <Array as="points">
              <mxPoint x="1270" y="70" />
              <mxPoint x="1380" y="70" />
              <mxPoint x="1380" y="123" />
            </Array>
          </mxGeometry>
        </mxCell>
        <mxCell id="115" value="yes, status = 7 | 11" style="edgeLabel;html=1;align=center;verticalAlign=middle;resizable=0;points=[];" parent="114" vertex="1" connectable="0">
          <mxGeometry x="-0.1503" y="1" relative="1" as="geometry">
            <mxPoint x="2" y="-9" as="offset" />
          </mxGeometry>
        </mxCell>
        <mxCell id="116" style="edgeStyle=none;html=1;entryX=0.145;entryY=0;entryDx=0;entryDy=4.35;entryPerimeter=0;" parent="1" source="112" target="83" edge="1">
          <mxGeometry relative="1" as="geometry">
            <Array as="points">
              <mxPoint x="1430" y="-20" />
            </Array>
          </mxGeometry>
        </mxCell>
        <mxCell id="117" value="no, status = 8 | 12" style="edgeLabel;html=1;align=center;verticalAlign=middle;resizable=0;points=[];" parent="116" vertex="1" connectable="0">
          <mxGeometry x="-0.6859" y="-1" relative="1" as="geometry">
            <mxPoint x="33" y="-11" as="offset" />
          </mxGeometry>
        </mxCell>
        <mxCell id="112" value="executed?" style="rhombus;whiteSpace=wrap;html=1;" parent="1" vertex="1">
          <mxGeometry x="1230" y="-60" width="80" height="80" as="geometry" />
        </mxCell>
        <mxCell id="127" style="edgeStyle=none;html=1;entryX=0;entryY=0.5;entryDx=0;entryDy=0;exitX=0.5;exitY=0;exitDx=0;exitDy=0;" parent="1" source="123" target="125" edge="1">
          <mxGeometry relative="1" as="geometry">
            <Array as="points">
              <mxPoint x="680" y="640" />
            </Array>
          </mxGeometry>
        </mxCell>
        <mxCell id="151" style="edgeStyle=none;html=1;entryX=0;entryY=0.5;entryDx=0;entryDy=0;" parent="1" source="123" target="134" edge="1">
          <mxGeometry relative="1" as="geometry">
            <Array as="points">
              <mxPoint x="680" y="890" />
            </Array>
          </mxGeometry>
        </mxCell>
        <mxCell id="123" value="Atomic Service - Executor" style="rounded=1;whiteSpace=wrap;html=1;" parent="1" vertex="1">
          <mxGeometry x="620" y="750" width="120" height="60" as="geometry" />
        </mxCell>
        <mxCell id="124" value="listens CC&lt;br&gt;for logs" style="text;html=1;align=center;verticalAlign=middle;resizable=0;points=[];autosize=1;strokeColor=none;fillColor=none;" parent="1" vertex="1">
          <mxGeometry x="540" y="760" width="80" height="40" as="geometry" />
        </mxCell>
        <mxCell id="129" style="edgeStyle=none;html=1;entryX=0;entryY=0.5;entryDx=0;entryDy=0;" parent="1" source="125" target="128" edge="1">
          <mxGeometry relative="1" as="geometry" />
        </mxCell>
        <mxCell id="130" value="yes" style="edgeLabel;html=1;align=center;verticalAlign=middle;resizable=0;points=[];" parent="129" vertex="1" connectable="0">
          <mxGeometry x="-0.3278" relative="1" as="geometry">
            <mxPoint x="6" y="-10" as="offset" />
          </mxGeometry>
        </mxCell>
        <mxCell id="125" value="executed?" style="rhombus;whiteSpace=wrap;html=1;" parent="1" vertex="1">
          <mxGeometry x="770" y="600" width="80" height="80" as="geometry" />
        </mxCell>
        <mxCell id="132" style="edgeStyle=none;html=1;entryX=0.5;entryY=0;entryDx=0;entryDy=0;entryPerimeter=0;" parent="1" source="128" target="131" edge="1">
          <mxGeometry relative="1" as="geometry">
            <Array as="points">
              <mxPoint x="1240" y="640" />
            </Array>
          </mxGeometry>
        </mxCell>
        <mxCell id="133" value="sender, status = 11" style="edgeLabel;html=1;align=center;verticalAlign=middle;resizable=0;points=[];" parent="132" vertex="1" connectable="0">
          <mxGeometry x="-0.5098" y="-1" relative="1" as="geometry">
            <mxPoint x="31" y="-11" as="offset" />
          </mxGeometry>
        </mxCell>
        <mxCell id="140" style="edgeStyle=none;html=1;entryX=0;entryY=0;entryDx=0;entryDy=15;entryPerimeter=0;exitX=0.5;exitY=1;exitDx=0;exitDy=0;" parent="1" source="128" target="131" edge="1">
          <mxGeometry relative="1" as="geometry">
            <Array as="points">
              <mxPoint x="990" y="720" />
              <mxPoint x="1190" y="720" />
            </Array>
          </mxGeometry>
        </mxCell>
        <mxCell id="141" value="destination, status = 11" style="edgeLabel;html=1;align=center;verticalAlign=middle;resizable=0;points=[];" parent="140" vertex="1" connectable="0">
          <mxGeometry x="-0.2978" y="2" relative="1" as="geometry">
            <mxPoint x="56" y="-13" as="offset" />
          </mxGeometry>
        </mxCell>
        <mxCell id="128" value="Sender or Destination" style="rhombus;whiteSpace=wrap;html=1;" parent="1" vertex="1">
          <mxGeometry x="950" y="600" width="80" height="80" as="geometry" />
        </mxCell>
        <mxCell id="131" value="DB" style="shape=cylinder3;whiteSpace=wrap;html=1;boundedLbl=1;backgroundOutline=1;size=15;" parent="1" vertex="1">
          <mxGeometry x="1210" y="720" width="60" height="80" as="geometry" />
        </mxCell>
        <mxCell id="138" style="edgeStyle=none;html=1;entryX=0;entryY=0.5;entryDx=0;entryDy=0;" parent="1" source="134" target="135" edge="1">
          <mxGeometry relative="1" as="geometry" />
        </mxCell>
        <mxCell id="139" value="yes" style="edgeLabel;html=1;align=center;verticalAlign=middle;resizable=0;points=[];" parent="138" vertex="1" connectable="0">
          <mxGeometry x="-0.4725" y="-2" relative="1" as="geometry">
            <mxPoint x="13" y="-12" as="offset" />
          </mxGeometry>
        </mxCell>
        <mxCell id="134" value="reverted?" style="rhombus;whiteSpace=wrap;html=1;" parent="1" vertex="1">
          <mxGeometry x="780" y="850" width="80" height="80" as="geometry" />
        </mxCell>
        <mxCell id="136" style="edgeStyle=none;html=1;entryX=0.5;entryY=1;entryDx=0;entryDy=0;entryPerimeter=0;" parent="1" source="135" target="131" edge="1">
          <mxGeometry relative="1" as="geometry">
            <Array as="points">
              <mxPoint x="1240" y="890" />
            </Array>
          </mxGeometry>
        </mxCell>
        <mxCell id="137" value="sender, status = 9" style="edgeLabel;html=1;align=center;verticalAlign=middle;resizable=0;points=[];" parent="136" vertex="1" connectable="0">
          <mxGeometry x="-0.6473" relative="1" as="geometry">
            <mxPoint x="29" y="-10" as="offset" />
          </mxGeometry>
        </mxCell>
        <mxCell id="145" style="edgeStyle=none;html=1;entryX=0;entryY=0.5;entryDx=0;entryDy=0;" parent="1" source="135" target="144" edge="1">
          <mxGeometry relative="1" as="geometry">
            <Array as="points">
              <mxPoint x="965" y="810" />
            </Array>
          </mxGeometry>
        </mxCell>
        <mxCell id="146" value="destination" style="edgeLabel;html=1;align=center;verticalAlign=middle;resizable=0;points=[];" parent="145" vertex="1" connectable="0">
          <mxGeometry x="0.2786" y="-1" relative="1" as="geometry">
            <mxPoint x="-2" y="-11" as="offset" />
          </mxGeometry>
        </mxCell>
        <mxCell id="135" value="Sender or Destination" style="rhombus;whiteSpace=wrap;html=1;" parent="1" vertex="1">
          <mxGeometry x="925" y="850" width="80" height="80" as="geometry" />
        </mxCell>
        <mxCell id="147" style="edgeStyle=none;html=1;exitX=1;exitY=0;exitDx=0;exitDy=0;" parent="1" source="144" target="131" edge="1">
          <mxGeometry relative="1" as="geometry">
            <Array as="points">
              <mxPoint x="1130" y="790" />
              <mxPoint x="1130" y="760" />
            </Array>
          </mxGeometry>
        </mxCell>
        <mxCell id="148" value="yes" style="edgeLabel;html=1;align=center;verticalAlign=middle;resizable=0;points=[];" parent="147" vertex="1" connectable="0">
          <mxGeometry x="-0.6133" y="-3" relative="1" as="geometry">
            <mxPoint x="-9" y="-13" as="offset" />
          </mxGeometry>
        </mxCell>
        <mxCell id="153" value="status = 10" style="edgeLabel;html=1;align=center;verticalAlign=middle;resizable=0;points=[];" parent="147" vertex="1" connectable="0">
          <mxGeometry x="0.2293" y="1" relative="1" as="geometry">
            <mxPoint x="18" y="-9" as="offset" />
          </mxGeometry>
        </mxCell>
        <mxCell id="149" style="edgeStyle=none;html=1;exitX=1;exitY=1;exitDx=0;exitDy=0;entryX=0.145;entryY=1;entryDx=0;entryDy=-4.35;entryPerimeter=0;" parent="1" source="144" target="131" edge="1">
          <mxGeometry relative="1" as="geometry">
            <Array as="points">
              <mxPoint x="1219" y="830" />
            </Array>
          </mxGeometry>
        </mxCell>
        <mxCell id="150" value="no, status = 12" style="edgeLabel;html=1;align=center;verticalAlign=middle;resizable=0;points=[];" parent="149" vertex="1" connectable="0">
          <mxGeometry x="-0.3511" relative="1" as="geometry">
            <mxPoint x="17" y="-10" as="offset" />
          </mxGeometry>
        </mxCell>
        <mxCell id="144" value="status == 6" style="rhombus;whiteSpace=wrap;html=1;" parent="1" vertex="1">
          <mxGeometry x="1030" y="770" width="80" height="80" as="geometry" />
        </mxCell>
        <mxCell id="154" value="listen for PL logs" style="text;html=1;align=center;verticalAlign=middle;resizable=0;points=[];autosize=1;strokeColor=none;fillColor=none;" parent="1" vertex="1">
          <mxGeometry x="40" y="294" width="110" height="30" as="geometry" />
        </mxCell>
        <mxCell id="155" value="msg status == 1" style="text;html=1;align=center;verticalAlign=middle;resizable=0;points=[];autosize=1;strokeColor=none;fillColor=none;" parent="1" vertex="1">
          <mxGeometry x="755" y="570" width="110" height="30" as="geometry" />
        </mxCell>
        <mxCell id="156" value="msg status == 3" style="text;html=1;align=center;verticalAlign=middle;resizable=0;points=[];autosize=1;strokeColor=none;fillColor=none;" parent="1" vertex="1">
          <mxGeometry x="765" y="820" width="110" height="30" as="geometry" />
        </mxCell>
        <mxCell id="157" value="Sender / Destination" style="text;html=1;align=center;verticalAlign=middle;resizable=0;points=[];autosize=1;strokeColor=none;fillColor=none;" parent="1" vertex="1">
          <mxGeometry x="875" y="520" width="130" height="30" as="geometry" />
        </mxCell>
        <mxCell id="1mormORi64eJlB-adqWI-157" value="Encrypt" style="rounded=1;whiteSpace=wrap;html=1;" vertex="1" parent="1">
          <mxGeometry x="260" y="350" width="120" height="60" as="geometry" />
        </mxCell>
        <mxCell id="1mormORi64eJlB-adqWI-158" value="" style="endArrow=classic;startArrow=classic;html=1;rounded=0;entryX=0.404;entryY=1.024;entryDx=0;entryDy=0;entryPerimeter=0;" edge="1" parent="1" target="11">
          <mxGeometry width="50" height="50" relative="1" as="geometry">
            <mxPoint x="318" y="347" as="sourcePoint" />
            <mxPoint x="330" y="294" as="targetPoint" />
          </mxGeometry>
        </mxCell>
        <mxCell id="1mormORi64eJlB-adqWI-161" value="Decrypt" style="rounded=1;whiteSpace=wrap;html=1;" vertex="1" parent="1">
          <mxGeometry x="1250" y="350" width="120" height="60" as="geometry" />
        </mxCell>
        <mxCell id="1mormORi64eJlB-adqWI-162" value="" style="endArrow=classic;startArrow=classic;html=1;rounded=0;entryX=0.404;entryY=1.024;entryDx=0;entryDy=0;entryPerimeter=0;" edge="1" parent="1">
          <mxGeometry width="50" height="50" relative="1" as="geometry">
            <mxPoint x="1308.5700000000002" y="350" as="sourcePoint" />
            <mxPoint x="1308.5700000000002" y="298" as="targetPoint" />
          </mxGeometry>
        </mxCell>
      </root>
    </mxGraphModel>
  </diagram>
</mxfile>
